# xmcd
#
# Track frame offsets: 
#        150
#        21217
#        49702
#        67925
#        84672
#        98690
#        135522
#        155872
#
# Disc length: 2211 seconds
#
# Revision: 0
# Processed by: cddbd v1.5.2PL0 Copyright (c) Steve Scherf et al.
# Submitted via: ExactAudioCopy v0.99pb4
#
DISCID=6008a108
DTITLE=THE OUTLAW BLUES BAND - THE OUTLAW BLUES BAND AND THE PEOPLE
DYEAR=1968
DGENRE=Blues
TTITLE0=TABACCO ROAD
TTITLE1=TRIED TO BE A GOOD BOY
TTITLE2=HOW BAD LOVE CAN BE
TTITLE3=IVE GOT TO HAVE PEACE ON MY MIND
TTITLE4=LOST IN THE BLUES
TTITLE5=DEATH DOG OF DOOM
TTITLE6=SWEET SIXTEEN
TTITLE7=TWO TRAINS RUNNING
EXTD=
EXTT0=TABACCO ROAD
EXTT1=
EXTT2=
EXTT3=
EXTT4=
EXTT5=
EXTT6=
EXTT7=
PLAYORDER=
